<svg width="360" height="520" viewBox="0 0 360 520" fill="none" xmlns="http://www.w3.org/2000/svg">
  <defs>
    <linearGradient id="bg3" x1="30" y1="26" x2="330" y2="494" gradientUnits="userSpaceOnUse">
      <stop stop-color="#F8F7F2"/>
      <stop offset="1" stop-color="#E6E2D7"/>
    </linearGradient>
    <linearGradient id="ring3a" x1="84" y1="86" x2="282" y2="282" gradientUnits="userSpaceOnUse">
      <stop stop-color="#1EA672"/>
      <stop offset="1" stop-color="#78D19A"/>
    </linearGradient>
    <linearGradient id="ring3b" x1="96" y1="110" x2="258" y2="246" gradientUnits="userSpaceOnUse">
      <stop stop-color="#D9D5C7"/>
      <stop offset="1" stop-color="#B8B3A3"/>
    </linearGradient>
    <filter id="shadow3" x="10" y="10" width="340" height="500" filterUnits="userSpaceOnUse" color-interpolation-filters="sRGB">
      <feDropShadow dx="0" dy="16" stdDeviation="18" flood-color="#766B52" flood-opacity="0.16"/>
    </filter>
  </defs>
  <g filter="url(#shadow3)">
    <rect x="24" y="24" width="312" height="472" rx="30" fill="url(#bg3)"/>
  </g>
  <rect x="46" y="48" width="268" height="34" rx="17" fill="#EFEBE0"/>
  <circle cx="66" cy="65" r="6" fill="#1EA672"/>
  <text x="82" y="70" fill="#4F5749" font-size="14" font-family="Helvetica, Arial, sans-serif" font-weight="700">Focused awake session</text>
  <circle cx="180" cy="194" r="96" stroke="url(#ring3b)" stroke-width="16"/>
  <path d="M180 98 A96 96 0 1 1 249.5 127.8" stroke="url(#ring3a)" stroke-width="16" stroke-linecap="round"/>
  <circle cx="180" cy="194" r="66" fill="#FCFBF8"/>
  <text x="180" y="176" fill="#8A927F" font-size="14" font-family="Helvetica, Arial, sans-serif" text-anchor="middle" letter-spacing="2">REMAINING</text>
  <text x="180" y="219" fill="#243126" font-size="54" font-family="Menlo, Monaco, monospace" font-weight="700" text-anchor="middle">45:00</text>
  <text x="180" y="244" fill="#76806E" font-size="13" font-family="Helvetica, Arial, sans-serif" text-anchor="middle">Three quarters left</text>
  <text x="48" y="316" fill="#5E6459" font-size="12" font-family="Helvetica, Arial, sans-serif" letter-spacing="2">COMMON DURATIONS</text>
  <rect x="48" y="332" width="264" height="94" rx="22" fill="#F3F0E8"/>
  <rect x="64" y="348" width="56" height="28" rx="14" fill="#FFFFFF"/>
  <rect x="128" y="348" width="56" height="28" rx="14" fill="#FFFFFF"/>
  <rect x="192" y="348" width="56" height="28" rx="14" fill="#DDF0E4"/>
  <rect x="256" y="348" width="40" height="28" rx="14" fill="#FFFFFF"/>
  <rect x="64" y="386" width="56" height="28" rx="14" fill="#FFFFFF"/>
  <rect x="128" y="386" width="56" height="28" rx="14" fill="#FFFFFF"/>
  <rect x="192" y="386" width="56" height="28" rx="14" fill="#FFFFFF"/>
  <text x="92" y="366" fill="#344135" font-size="13" font-family="Helvetica, Arial, sans-serif" font-weight="700" text-anchor="middle">5m</text>
  <text x="156" y="366" fill="#344135" font-size="13" font-family="Helvetica, Arial, sans-serif" font-weight="700" text-anchor="middle">10m</text>
  <text x="220" y="366" fill="#1E7C53" font-size="13" font-family="Helvetica, Arial, sans-serif" font-weight="700" text-anchor="middle">15m</text>
  <text x="276" y="366" fill="#344135" font-size="13" font-family="Helvetica, Arial, sans-serif" font-weight="700" text-anchor="middle">30</text>
  <text x="92" y="404" fill="#344135" font-size="13" font-family="Helvetica, Arial, sans-serif" font-weight="700" text-anchor="middle">60m</text>
  <text x="156" y="404" fill="#344135" font-size="13" font-family="Helvetica, Arial, sans-serif" font-weight="700" text-anchor="middle">8h</text>
  <text x="220" y="404" fill="#344135" font-size="13" font-family="Helvetica, Arial, sans-serif" font-weight="700" text-anchor="middle">12h</text>
  <rect x="48" y="446" width="128" height="34" rx="17" fill="#1D2B1F"/>
  <rect x="184" y="446" width="128" height="34" rx="17" fill="#ECE8DB"/>
  <text x="112" y="468" fill="#F7F5ED" font-size="15" font-family="Helvetica, Arial, sans-serif" font-weight="700" text-anchor="middle">Stop session</text>
  <text x="248" y="468" fill="#485246" font-size="15" font-family="Helvetica, Arial, sans-serif" font-weight="700" text-anchor="middle">Quit</text>
</svg>
