<svg width="360" height="520" viewBox="0 0 360 520" fill="none" xmlns="http://www.w3.org/2000/svg">
  <defs>
    <linearGradient id="bg2" x1="26" y1="24" x2="334" y2="496" gradientUnits="userSpaceOnUse">
      <stop stop-color="#132033"/>
      <stop offset="1" stop-color="#1E314B"/>
    </linearGradient>
    <linearGradient id="ring2" x1="92" y1="96" x2="270" y2="264" gradientUnits="userSpaceOnUse">
      <stop stop-color="#64F3FF"/>
      <stop offset="1" stop-color="#7DFFB2"/>
    </linearGradient>
    <linearGradient id="glow2" x1="96" y1="110" x2="260" y2="252" gradientUnits="userSpaceOnUse">
      <stop stop-color="#4CD7FF" stop-opacity="0.14"/>
      <stop offset="1" stop-color="#98FFC7" stop-opacity="0.02"/>
    </linearGradient>
    <filter id="shadow2" x="10" y="10" width="340" height="500" filterUnits="userSpaceOnUse" color-interpolation-filters="sRGB">
      <feDropShadow dx="0" dy="20" stdDeviation="20" flood-color="#09111E" flood-opacity="0.42"/>
    </filter>
  </defs>
  <g filter="url(#shadow2)">
    <rect x="24" y="24" width="312" height="472" rx="30" fill="url(#bg2)"/>
  </g>
  <text x="50" y="66" fill="#D7E9F7" font-size="18" font-family="Helvetica, Arial, sans-serif" font-weight="700">Awake</text>
  <text x="50" y="90" fill="#88A7C4" font-size="13" font-family="Helvetica, Arial, sans-serif">Session timer</text>
  <circle cx="180" cy="188" r="94" stroke="#27415F" stroke-width="20"/>
  <circle cx="180" cy="188" r="72" fill="url(#glow2)"/>
  <path d="M180 94 A94 94 0 1 1 118 258" stroke="url(#ring2)" stroke-width="20" stroke-linecap="round"/>
  <text x="180" y="176" fill="#7FEFD4" font-size="15" font-family="Helvetica, Arial, sans-serif" text-anchor="middle" letter-spacing="2">TIME LEFT</text>
  <text x="180" y="218" fill="#F4FBFF" font-size="58" font-family="Menlo, Monaco, monospace" font-weight="700" text-anchor="middle">03:12</text>
  <rect x="114" y="234" width="132" height="28" rx="14" fill="#20354E"/>
  <text x="180" y="252" fill="#91B4D2" font-size="13" font-family="Helvetica, Arial, sans-serif" text-anchor="middle">Lap 2 of 4 hour block</text>
  <rect x="50" y="296" width="260" height="78" rx="24" fill="#16273C"/>
  <text x="72" y="324" fill="#87A9C9" font-size="12" font-family="Helvetica, Arial, sans-serif" letter-spacing="2">PRESETS</text>
  <rect x="72" y="338" width="52" height="26" rx="13" fill="#243A55"/>
  <rect x="132" y="338" width="52" height="26" rx="13" fill="#243A55"/>
  <rect x="192" y="338" width="52" height="26" rx="13" fill="#243A55"/>
  <rect x="252" y="338" width="36" height="26" rx="13" fill="#243A55"/>
  <text x="98" y="355" fill="#E7F7FF" font-size="13" font-family="Helvetica, Arial, sans-serif" font-weight="700" text-anchor="middle">5m</text>
  <text x="158" y="355" fill="#E7F7FF" font-size="13" font-family="Helvetica, Arial, sans-serif" font-weight="700" text-anchor="middle">15m</text>
  <text x="218" y="355" fill="#E7F7FF" font-size="13" font-family="Helvetica, Arial, sans-serif" font-weight="700" text-anchor="middle">60m</text>
  <text x="270" y="355" fill="#E7F7FF" font-size="13" font-family="Helvetica, Arial, sans-serif" font-weight="700" text-anchor="middle">8h</text>
  <rect x="50" y="396" width="124" height="46" rx="23" fill="#6BF3C3"/>
  <rect x="186" y="396" width="124" height="46" rx="23" fill="#223851"/>
  <text x="112" y="424" fill="#102434" font-size="18" font-family="Helvetica, Arial, sans-serif" font-weight="700" text-anchor="middle">Extend</text>
  <text x="248" y="424" fill="#D4E8F6" font-size="18" font-family="Helvetica, Arial, sans-serif" font-weight="700" text-anchor="middle">Stop</text>
  <text x="50" y="470" fill="#88A7C4" font-size="13" font-family="Helvetica, Arial, sans-serif">Cursor pulse every 60s</text>
</svg>
